<?xml version="1.0" encoding="UTF-8" standalone="no"?>
<!-- Generator: Gravit.io -->
<svg xmlns="http://www.w3.org/2000/svg" xmlns:xlink="http://www.w3.org/1999/xlink" style="isolation:isolate" viewBox="586.649 432 237.897 357.481" width="237.897" height="357.481"><g style="isolation:isolate"><path d=" M 597.541 620.356 C 600.864 620.187 603.561 620.882 603.561 621.911 C 603.561 622.939 600.864 623.913 597.541 624.082 C 594.218 624.251 591.521 623.556 591.521 622.525 C 591.521 621.496 594.218 620.525 597.541 620.356 L 597.541 620.356 Z  M 813.652 620.356 C 810.331 620.187 807.635 620.882 807.635 621.911 C 807.635 622.939 810.331 623.913 813.652 624.082 C 816.976 624.251 819.674 623.556 819.674 622.525 C 819.674 621.496 816.976 620.525 813.652 620.356 L 813.652 620.356 Z  M 787.035 618.525 C 795.536 620.405 803.762 624.487 806.773 632.986 C 810.902 644.638 807.958 657.377 802.579 666.94 C 795.174 680.109 784.551 684.439 769.915 684.936 C 754.637 685.458 735.557 679.868 727.095 653.912 C 721.049 635.371 728.603 626.214 738.342 621.717 C 750.331 616.177 774.191 615.683 787.035 618.525 L 787.035 618.525 Z  M 624.16 618.525 C 615.656 620.405 607.432 624.487 604.42 632.986 C 600.293 644.638 603.237 657.377 608.615 666.94 C 616.021 680.109 626.643 684.439 641.279 684.936 C 656.557 685.458 675.637 679.868 684.099 653.912 C 690.146 635.371 682.589 626.214 672.853 621.717 C 660.864 616.177 637.003 615.683 624.16 618.525 L 624.16 618.525 Z  M 586.649 616.075 L 587.508 629.836 C 587.508 629.836 593.241 627.829 596.108 645.885 C 598.974 663.943 601.554 689.164 643.114 689.738 C 684.673 690.31 693.271 652.478 695.564 647.03 C 697.86 641.587 698.431 637.575 701.012 636.427 C 704.287 634.971 706.908 634.971 710.182 636.427 C 712.763 637.575 713.335 641.587 715.628 647.03 C 717.923 652.478 726.522 690.31 768.082 689.738 C 809.64 689.164 812.221 663.943 815.086 645.885 C 817.953 627.829 823.684 629.836 823.684 629.836 L 824.546 616.075 C 793.877 608.913 754.895 609.199 735.406 615.218 C 728.097 617.474 722.077 619.086 717.409 620.219 C 706.841 622.788 704.354 622.788 693.786 620.219 C 689.117 619.086 683.098 617.474 675.788 615.218 C 656.298 609.199 617.318 608.913 586.649 616.075 L 586.649 616.075 Z " fill-rule="evenodd" fill="rgb(58,57,57)"/><path d=" M 626.169 511.118 C 626.169 511.118 625.697 462.46 638.451 449.234 C 651.208 436.004 679.552 430.81 711.677 432.226 C 743.8 433.644 763.17 440.73 781.594 457.265 C 800.018 473.799 791.044 517.262 791.044 517.262 C 791.044 517.262 834.98 533.323 822.223 562.614 C 809.468 591.904 757.029 597.571 706.952 580.563 C 667.116 567.036 634.827 555.397 597.825 535.214 C 582.236 526.71 591.209 516.316 601.604 516.316 C 611.996 516.316 623.334 519.15 626.169 511.118 L 626.169 511.118 Z " fill-rule="evenodd" fill="rgb(58,57,57)"/><path d=" M 705.599 743.962 C 705.599 743.962 684.316 719.901 658.635 740.029 C 639.776 754.811 628.589 767.019 616.143 768.979 C 586.885 773.585 595.568 740.61 613.522 745.812 C 588.614 734.059 577.241 767.294 601.152 780.474 C 614.772 787.979 636.067 791.415 655.86 788.381 C 690.561 783.06 705.599 765.94 705.599 765.94 C 705.599 765.94 720.637 783.06 755.34 788.381 C 775.13 791.415 796.426 787.979 810.043 780.474 C 833.954 767.294 822.581 734.059 797.676 745.812 C 815.628 740.61 824.313 773.585 795.055 768.979 C 782.606 767.019 771.421 754.811 752.563 740.029 C 726.885 719.901 705.599 743.962 705.599 743.962 L 705.599 743.962 Z " fill-rule="evenodd" fill="rgb(58,57,57)"/></g></svg>